<svg id="Ebene_1" data-name="Ebene 1" xmlns="http://www.w3.org/2000/svg" viewBox="0 0 1366 768"><defs><style>.cls-1{fill:#2d2e83;}.cls-2,.cls-3{fill:#f5f5f5;}.cls-3{stroke:#2d2e82;stroke-miterlimit:10;stroke-width:8.89px;}.cls-4{font-size:50px;fill:#fff;font-family:NexaLight, Nexa Light;}.cls-5{letter-spacing:0.02em;}.cls-6{letter-spacing:0.01em;}.cls-7{letter-spacing:-0.02em;}.cls-8{letter-spacing:0em;}.cls-9{letter-spacing:-0.02em;}.cls-10{letter-spacing:-0.08em;}</style></defs><rect class="cls-1" width="1366" height="768"/><polygon class="cls-2" points="1283.87 491.35 1281.99 509.67 1265.84 518.51 1282.68 525.96 1286.1 544.06 1298.39 530.34 1316.65 532.68 1307.4 516.76 1315.28 500.11 1297.27 503.99 1283.87 491.35"/><polygon class="cls-2" points="377.34 639.21 375.59 656.37 360.46 664.64 376.23 671.62 379.43 688.56 390.93 675.72 408.04 677.91 399.38 663 406.75 647.41 389.89 651.04 377.34 639.21"/><polygon class="cls-2" points="182.16 512.54 179.19 541.53 153.62 555.52 180.28 567.3 185.68 595.94 205.12 574.23 234.03 577.94 219.39 552.74 231.85 526.4 203.36 532.53 182.16 512.54"/><polygon class="cls-2" points="1131.24 476.98 1130.58 483.42 1124.9 486.52 1130.82 489.14 1132.02 495.49 1136.33 490.68 1142.75 491.5 1139.5 485.91 1142.27 480.06 1135.94 481.42 1131.24 476.98"/><polygon class="cls-2" points="375.32 485.57 374.66 492 368.99 495.11 374.91 497.73 376.11 504.08 380.42 499.26 386.84 500.09 383.59 494.49 386.35 488.65 380.03 490.01 375.32 485.57"/><polygon class="cls-2" points="159.32 359.57 158.66 366 152.99 369.11 158.91 371.73 160.1 378.08 164.42 373.26 170.84 374.09 167.59 368.49 170.35 362.65 164.03 364.01 159.32 359.57"/><polygon class="cls-2" points="1158.32 674.57 1157.66 681 1151.99 684.11 1157.91 686.73 1159.11 693.08 1163.42 688.26 1169.84 689.09 1166.59 683.49 1169.35 677.65 1163.03 679.01 1158.32 674.57"/><polygon class="cls-2" points="1038.58 558.8 1036.7 577.12 1020.55 585.96 1037.39 593.41 1040.81 611.51 1053.1 597.79 1071.37 600.13 1062.11 584.21 1069.99 567.55 1051.98 571.43 1038.58 558.8"/><polygon class="cls-2" points="1115.58 323.8 1113.7 342.12 1097.55 350.96 1114.39 358.41 1117.81 376.51 1130.1 362.79 1148.37 365.13 1139.11 349.2 1146.99 332.56 1128.98 336.43 1115.58 323.8"/><ellipse class="cls-2" cx="683" cy="343.1" rx="112.65" ry="65.06"/><ellipse class="cls-3" cx="683" cy="390.95" rx="235.14" ry="54.25"/><ellipse class="cls-2" cx="683" cy="436.02" rx="65.89" ry="54.25"/><polygon class="cls-2" points="704.1 454.06 704.34 454 662.09 454 589.5 768 776.68 768 704.1 454.06"/><text class="cls-4" transform="translate(326.68 143)">U<tspan class="cls-5" x="34.15" y="0">F</tspan><tspan x="64.7" y="0">O-</tspan><tspan class="cls-6" x="128.8" y="0">S</tspan><tspan x="161" y="0">t</tspan><tspan class="cls-7" x="180.7" y="0">a</tspan><tspan class="cls-8" x="210.05" y="0">tistiken </tspan><tspan class="cls-9" x="387.4" y="0">a</tspan><tspan x="416.6" y="0">us aller </tspan><tspan class="cls-10" x="596.09" y="0">W</tspan><tspan x="644.19" y="0">elt!</tspan></text></svg>