<svg id="Ebene_1" data-name="Ebene 1" xmlns="http://www.w3.org/2000/svg" viewBox="0 0 347 347"><defs><style>.cls-1{fill:#2d2e83;}.cls-2,.cls-3,.cls-4,.cls-5{fill:#f6f6f6;}.cls-3{stroke:#2d2e83;stroke-miterlimit:10;stroke-width:3.03px;}.cls-4{opacity:0.25;}.cls-5{opacity:0.63;}.cls-6{fill:#ededed;}.cls-7{fill:#dadada;}</style></defs><circle class="cls-1" cx="173.5" cy="173.5" r="173.5"/><polygon class="cls-2" points="29.94 214.25 27.34 209.76 25.36 214.56 20.29 215.64 24.24 219.01 23.7 224.16 28.12 221.45 32.86 223.56 31.65 218.51 35.11 214.65 29.94 214.25"/><polygon class="cls-2" points="322.17 151.42 323.38 146.37 318.64 148.49 314.21 145.78 314.76 150.94 310.82 154.31 315.89 155.39 317.88 160.18 320.47 155.68 325.64 155.27 322.17 151.42"/><polygon class="cls-2" points="62.94 251.85 61.09 247 58.37 251.42 53.19 251.69 56.55 255.64 55.2 260.65 60 258.67 64.35 261.5 63.95 256.33 67.98 253.07 62.94 251.85"/><polygon class="cls-2" points="273.75 200.65 265.71 207.21 255.75 204.32 259.51 213.99 253.68 222.57 264.04 221.98 270.4 230.18 273.04 220.15 282.8 216.63 274.07 211.02 273.75 200.65"/><polygon class="cls-2" points="292.8 252.93 288.72 256.14 283.77 254.59 285.56 259.46 282.56 263.69 287.74 263.5 290.84 267.66 292.26 262.67 297.17 261 292.86 258.12 292.8 252.93"/><polygon class="cls-2" points="315.45 215.08 313.47 214.6 312.75 212.71 311.68 214.44 309.65 214.54 310.97 216.09 310.44 218.05 312.32 217.28 314.02 218.38 313.87 216.36 315.45 215.08"/><polygon class="cls-2" points="60.34 181.99 59.61 180.09 58.55 181.82 56.52 181.93 57.83 183.48 57.31 185.44 59.19 184.66 60.89 185.77 60.73 183.75 62.31 182.47 60.34 181.99"/><polygon class="cls-2" points="264.6 134.8 263.87 132.9 262.81 134.63 260.78 134.73 262.1 136.28 261.57 138.24 263.45 137.47 265.15 138.58 264.99 136.55 266.57 135.27 264.6 134.8"/><ellipse class="cls-2" cx="173.5" cy="142.74" rx="38.41" ry="22.18"/><ellipse class="cls-3" cx="173.5" cy="159.05" rx="80.18" ry="18.5"/><ellipse class="cls-2" cx="173.5" cy="174.42" rx="22.47" ry="18.5"/><path class="cls-2" d="M304.92,428H290.51L253.32,588.86a174.4,174.4,0,0,0,88.63-.27L304.83,428Z" transform="translate(-124.14 -247.45)"/><circle class="cls-4" cx="173.5" cy="56.91" r="43.64"/><circle class="cls-5" cx="173.5" cy="57.16" r="33.33"/><circle class="cls-6" cx="173.5" cy="57.15" r="26.4"/><circle class="cls-7" cx="156.35" cy="52.55" r="6"/><circle class="cls-7" cx="193.55" cy="52.49" r="3.07"/><circle class="cls-7" cx="170.55" cy="61.49" r="1.07"/><circle class="cls-7" cx="178.79" cy="52.77" r="2.79"/><circle class="cls-7" cx="165.36" cy="36.36" r="1.07"/><circle class="cls-7" cx="164.83" cy="69.82" r="2.73"/><circle class="cls-7" cx="184.52" cy="69.92" r="4.63"/><circle class="cls-7" cx="182.45" cy="42.76" r="1.07"/><polygon class="cls-2" points="39.21 123.81 38.16 134.14 29.05 139.12 38.54 143.31 40.47 153.51 47.39 145.78 57.68 147.1 52.47 138.13 56.91 128.75 46.76 130.93 39.21 123.81"/></svg>